<svg xmlns="http://www.w3.org/2000/svg" width="788.884" height="790.505" viewBox="0 0 788.884 790.505">
  <g id="Layer_2" data-name="Layer 2" transform="translate(-0.005)">
    <g id="Layer_1" data-name="Layer 1">
      <path id="Trazado_56" data-name="Trazado 56" d="M613.77,177.9C693,247.24,779.71,319.11,788.16,399.22c8.67,80.32-61.3,168.89-140.56,218.57s-167.84,60.45-274.38,78C266.9,713.54,142.82,738.27,71,688.6s-91.53-173.76-46.72-253S178.54,322.07,250.41,252.52C322.28,183.19,356.52,78.77,409.58,60.16c53.06-18.81,124.93,48.41,204.19,117.74" fill="#f2f2f2"/>
      <rect id="Rectángulo_576" data-name="Rectángulo 576" width="240.72" height="182.26" transform="translate(483.88 31.63)" fill="#d7e0ff"/>
      <rect id="Rectángulo_577" data-name="Rectángulo 577" width="70.49" height="126.38" transform="translate(613.84 65.9)" fill="#eaf0ff"/>
      <path id="Trazado_57" data-name="Trazado 57" d="M590.63,93.7a29.07,29.07,0,1,1-29.063-29.06A29.07,29.07,0,0,1,590.63,93.7" fill="#eecb55"/>
      <path id="Trazado_58" data-name="Trazado 58" d="M727.51,404a71.11,71.11,0,1,1-71.11-71.11A71.11,71.11,0,0,1,727.51,404" fill="#fff"/>
      <rect id="Rectángulo_578" data-name="Rectángulo 578" width="152.37" height="152.37" transform="translate(619.19 271.93)" stroke-width="3" stroke="#b2c3fb" stroke-linecap="round" stroke-linejoin="round" fill="none"/>
      <path id="Trazado_59" data-name="Trazado 59" d="M369.36,788.66H747.44" fill="none" stroke="#1b3c87" stroke-linecap="round" stroke-linejoin="round" stroke-width="3.69"/>
      <path id="Trazado_60" data-name="Trazado 60" d="M1.85,788.66H280.44" fill="none" stroke="#1b3c87" stroke-linecap="round" stroke-linejoin="round" stroke-width="3.69"/>
      <path id="Trazado_61" data-name="Trazado 61" d="M436.62,274.66l-1.55,7.46-10.4,3.24s-5.15-16.06-5.86-19.69c-5,3.73-33.82,11.81-38.79,12.53-.69-3.87-.69-37.41,27.27-37.41,24.63,0,35.67,24.67,36.32,27.56-1.44.84-7,2.9-7,6.31" fill="#a37f45"/>
      <path id="Trazado_62" data-name="Trazado 62" d="M443.53,339.23c-6.25,0-51.61,45.77-53.47,55.35l-14.61,75.59L451.12,449l4.44-96.28L444.78,339.2Z" fill="#fbe35d"/>
      <path id="Trazado_63" data-name="Trazado 63" d="M350.06,472.13c-.13-5.27,43.31-142.41,48.21-147.07a16.27,16.27,0,0,1,12.37-4.8c2.16.1,12.54,5,14.73,10.17-3.74,8.86-12.75,13.78-12.75,13.78L395.09,452.53Z" fill="#fff"/>
      <path id="Trazado_64" data-name="Trazado 64" d="M403,554.37l62.78,77.71-30.45,30.61-92.16-80.57,21.8-30Z" fill="#3c3744"/>
      <path id="Trazado_65" data-name="Trazado 65" d="M386.46,693.47C378,685.78,278.75,562.15,278.75,546.85c0-34.11,38.7-46.2,49.26-48.86,14.55-1.32,79.09-6.72,89.24-6.3,7.32,7.93,92.32,26.23,104.64,24.65,0,6.17-9.8,49.31-79.32,49.31-7.28,0-62.09-2.19-63.11-2.19,0,12.83,35.13,96.34,38.48,102" fill="#3c3744"/>
      <path id="Trazado_66" data-name="Trazado 66" d="M476.4,316.87c56.27,0,68.45,101.51,68.45,130.32,0,36.73-14.9,66.08-22,68.83-20.11,7.73-93.93-17.59-98.61-29.58-22.82-58.4,14.74-169.57,52.2-169.57" fill="#fbe35d"/>
      <path id="Trazado_67" data-name="Trazado 67" d="M428.36,247.38a51.179,51.179,0,0,1,11.38,14.81q.74,1.44,1.38,2.88" fill="none" stroke="#1b3c87" stroke-linecap="round" stroke-linejoin="round" stroke-width="3.69"/>
      <path id="Trazado_68" data-name="Trazado 68" d="M381.82,292c-10.51-20.42-6.06-43.64,9.94-51.87a27.17,27.17,0,0,1,16.86-2.53" fill="none" stroke="#1b3c87" stroke-linecap="round" stroke-linejoin="round" stroke-width="3.69"/>
      <path id="Trazado_69" data-name="Trazado 69" d="M437.37,308.18a26.319,26.319,0,0,1-7.57,5.88c-10.92,5.62-24.4,2.8-35.19-6.05" fill="none" stroke="#1b3c87" stroke-linecap="round" stroke-linejoin="round" stroke-width="3.69"/>
      <path id="Trazado_70" data-name="Trazado 70" d="M433.05,271.08A9.59,9.59,0,1,1,442,284.21a9.43,9.43,0,0,1-4.17-1" fill="none" stroke="#1b3c87" stroke-linecap="round" stroke-linejoin="round" stroke-width="3.69"/>
      <path id="Trazado_71" data-name="Trazado 71" d="M441.15,341.18c-1.41-5.05-6.48-20.61-12.81-26.43" fill="none" stroke="#1b3c87" stroke-linecap="round" stroke-linejoin="round" stroke-width="3.69"/>
      <path id="Trazado_72" data-name="Trazado 72" d="M446.2,286.61c1.95,6.56,19.58,30.21,23.92,33.49-.26,2.85-5.87,8.36-12.18,13" fill="none" stroke="#1b3c87" stroke-linecap="round" stroke-linejoin="round" stroke-width="3.69"/>
      <path id="Trazado_73" data-name="Trazado 73" d="M423.67,281l7.83-2.43,1.55-7.47" fill="none" stroke="#1b3c87" stroke-linecap="round" stroke-linejoin="round" stroke-width="3.69"/>
      <path id="Trazado_74" data-name="Trazado 74" d="M402.61,267.32c5.82-1.94,10.79-3.87,12.63-5.23.51,2.64,3.38,11.86,4.9,16.68" fill="none" stroke="#1b3c87" stroke-linecap="round" stroke-linejoin="round" stroke-width="3.69"/>
      <path id="Trazado_75" data-name="Trazado 75" d="M376.44,274.62c1.92-.28,7.37-1.65,13.64-3.44" fill="none" stroke="#1b3c87" stroke-linecap="round" stroke-linejoin="round" stroke-width="3.69"/>
      <path id="Trazado_76" data-name="Trazado 76" d="M433.75,492.2c-7.9-3.94-13.39-7.77-14.56-10.77-7-18-8.33-41.05-5.65-64.3" fill="none" stroke="#1b3c87" stroke-linecap="round" stroke-linejoin="round" stroke-width="3.69"/>
      <path id="Trazado_77" data-name="Trazado 77" d="M532.05,384.27c5.86,23.5,7.79,46.45,7.79,57.91,0,36.74-14.9,66.09-22,68.83-9.43,3.63-30.65,0-51-6.14" fill="none" stroke="#1b3c87" stroke-linecap="round" stroke-linejoin="round" stroke-width="3.69"/>
      <path id="Trazado_78" data-name="Trazado 78" d="M463.92,313.3a21,21,0,0,1,7.48-1.44c14.83,0,26.6,7.06,35.89,18" fill="none" stroke="#1b3c87" stroke-linecap="round" stroke-linejoin="round" stroke-width="3.69"/>
      <path id="Trazado_79" data-name="Trazado 79" d="M424.76,368.59a163.242,163.242,0,0,1,15-31.9" fill="none" stroke="#1b3c87" stroke-linecap="round" stroke-linejoin="round" stroke-width="3.69"/>
      <path id="Trazado_80" data-name="Trazado 80" d="M389.77,327.49c1.66-4.2,2.88-6.85,3.49-7.44a16.27,16.27,0,0,1,12.37-4.8c2.16.1,12.54,5,14.73,10.17" fill="none" stroke="#1b3c87" stroke-linecap="round" stroke-linejoin="round" stroke-width="3.69"/>
      <path id="Trazado_81" data-name="Trazado 81" d="M357.3,424.3c7.37-23.56,16.73-52.37,24.11-73.75" fill="none" stroke="#1b3c87" stroke-linecap="round" stroke-linejoin="round" stroke-width="3.69"/>
      <path id="Trazado_82" data-name="Trazado 82" d="M345.05,466.41c0-1,1.47-6.53,3.94-14.92" fill="none" stroke="#1b3c87" stroke-linecap="round" stroke-linejoin="round" stroke-width="3.69"/>
      <path id="Trazado_83" data-name="Trazado 83" d="M407.31,324.3c2.14.34,7.31,3.49,10,6.64" fill="none" stroke="#1b3c87" stroke-linecap="round" stroke-linejoin="round" stroke-width="3.69"/>
      <path id="Trazado_84" data-name="Trazado 84" d="M401.32,331.89c2.13.34,7.31,3.49,10,6.64" fill="none" stroke="#1b3c87" stroke-linecap="round" stroke-linejoin="round" stroke-width="3.69"/>
      <path id="Trazado_85" data-name="Trazado 85" d="M390.09,446.94c.17-4.8,12-87.58,17.23-103.85" fill="none" stroke="#1b3c87" stroke-linecap="round" stroke-linejoin="round" stroke-width="3.69"/>
      <path id="Trazado_86" data-name="Trazado 86" d="M415.5,353.12c7.28-7.79,16.1-16.16,23.18-19.55" fill="none" stroke="#1b3c87" stroke-linecap="round" stroke-linejoin="round" stroke-width="3.69"/>
      <path id="Trazado_87" data-name="Trazado 87" d="M185.91,395l46,74.76" fill="none" stroke="#1b3c87" stroke-linecap="round" stroke-linejoin="round" stroke-width="3.69"/>
      <path id="Trazado_88" data-name="Trazado 88" d="M516.88,511.33c0,6.17-9.79,49.31-79.32,49.31-7.28,0-62.09-2.19-63.11-2.19,0,12.83,35.13,96.34,38.48,102" fill="none" stroke="#1b3c87" stroke-linecap="round" stroke-linejoin="round" stroke-width="3.69"/>
      <path id="Trazado_89" data-name="Trazado 89" d="M323,493c-10.21,3.82-49.27,14.75-49.27,48.86,0,15.3,99.23,138.93,107.71,146.62" fill="none" stroke="#1b3c87" stroke-linecap="round" stroke-linejoin="round" stroke-width="3.69"/>
      <path id="Trazado_90" data-name="Trazado 90" d="M376.49,694,422,665" fill="none" stroke="#1b3c87" stroke-linecap="round" stroke-linejoin="round" stroke-width="3.69"/>
      <path id="Trazado_91" data-name="Trazado 91" d="M381.45,702l46.93-28.43" fill="none" stroke="#1b3c87" stroke-linecap="round" stroke-linejoin="round" stroke-width="3.69"/>
      <path id="Trazado_92" data-name="Trazado 92" d="M400.22,631.33l29.16,26.35" fill="none" stroke="#1b3c87" stroke-linecap="round" stroke-linejoin="round" stroke-width="3.69"/>
      <path id="Trazado_93" data-name="Trazado 93" d="M417.33,573.17l43.4,53.91" fill="none" stroke="#1b3c87" stroke-linecap="round" stroke-linejoin="round" stroke-width="3.69"/>
      <path id="Trazado_94" data-name="Trazado 94" d="M465.76,623.21l-38.35,37.27" fill="none" stroke="#1b3c87" stroke-linecap="round" stroke-linejoin="round" stroke-width="3.69"/>
      <path id="Trazado_95" data-name="Trazado 95" d="M470.6,630.4l-38.35,37.27" fill="none" stroke="#1b3c87" stroke-linecap="round" stroke-linejoin="round" stroke-width="3.69"/>
      <path id="Trazado_96" data-name="Trazado 96" d="M165.11,755.52v33.14" fill="none" stroke="#1b3c87" stroke-linecap="round" stroke-linejoin="round" stroke-width="3.69"/>
      <path id="Trazado_97" data-name="Trazado 97" d="M165.11,493V694" fill="none" stroke="#1b3c87" stroke-linecap="round" stroke-linejoin="round" stroke-width="3.69"/>
      <path id="Trazado_98" data-name="Trazado 98" d="M318.15,493V788.66" fill="none" stroke="#1b3c87" stroke-linecap="round" stroke-linejoin="round" stroke-width="3.69"/>
      <path id="Trazado_99" data-name="Trazado 99" d="M496.12,341.43c26.79,9.32,13.15,66.7,5.61,68.64s-53-16.05-54.42-20.89,17.52-58.65,48.81-47.75" fill="#fbe35d"/>
      <path id="Trazado_100" data-name="Trazado 100" d="M462.11,344.88c7.75-7.77,17.55-12.45,29-8.46,26.79,9.32,13.15,66.7,5.6,68.64s-53-16.05-54.42-20.89c-.34-1.14.45-5,2.28-10.12" fill="none" stroke="#1b3c87" stroke-linecap="round" stroke-linejoin="round" stroke-width="3.69"/>
      <path id="Trazado_101" data-name="Trazado 101" d="M450.44,392c-2.18,3.2-14.25,42.23-14.25,42.23S350.92,471,346.67,472.9c-1.55-2.12-6.65-6-17-6-18.95,0-22.23,12.57-22.23,15.27s28.81,8.7,36.54,8.51,115.82-16.63,119.68-18.56,29.73-63,29.73-63c-7-.37-39.27-10.36-42.93-17.11" fill="#fff"/>
      <path id="Trazado_102" data-name="Trazado 102" d="M396.68,477.6c-27.28,4.17-54,8-57.73,8.08-7.73.2-36.54-5.8-36.54-8.51s3.28-15.27,22.23-15.27c10.37,0,15.47,3.87,17,6,4.25-1.93,89.52-38.67,89.52-38.67s12.07-39,14.25-42.23" fill="none" stroke="#1b3c87" stroke-linecap="round" stroke-linejoin="round" stroke-width="3.69"/>
      <path id="Trazado_103" data-name="Trazado 103" d="M488.36,404.1s-25.86,61.09-29.73,63c-1.1.55-10.63,2.28-23.88,4.46" fill="none" stroke="#1b3c87" stroke-linecap="round" stroke-linejoin="round" stroke-width="3.69"/>
      <rect id="Rectángulo_579" data-name="Rectángulo 579" width="165.03" height="15.31" transform="translate(413.83 562.86)" fill="#8088dc"/>
      <path id="Trazado_104" data-name="Trazado 104" d="M512.09,573.17H408.81V557.86h165v15.31h-29" fill="none" stroke="#1b3c87" stroke-linecap="round" stroke-linejoin="round" stroke-width="3.69"/>
      <rect id="Rectángulo_580" data-name="Rectángulo 580" width="251.09" height="12.6" transform="translate(120.38 484.67)" fill="#8088dc"/>
      <path id="Trazado_105" data-name="Trazado 105" d="M185.91,480.38H367.18V493H116.09V480.4h38.64" fill="none" stroke="#1b3c87" stroke-linecap="round" stroke-linejoin="round" stroke-width="3.69"/>
      <rect id="Rectángulo_581" data-name="Rectángulo 581" width="88.43" height="10.6" transform="translate(236.22 474.07)" fill="#fb5d64"/>
      <rect id="Rectángulo_582" data-name="Rectángulo 582" width="88.43" height="10.6" transform="translate(231.93 469.78)" stroke-width="3.69" stroke="#1b3c87" stroke-linecap="round" stroke-linejoin="round" fill="none"/>
      <path id="Trazado_106" data-name="Trazado 106" d="M390.07,704.83l29,31.71-15.86,44,48.65-37.83-28.2-58.17" fill="#fff"/>
      <path id="Trazado_107" data-name="Trazado 107" d="M435.52,714.32,418.63,679.5" fill="none" stroke="#1b3c87" stroke-linecap="round" stroke-linejoin="round" stroke-width="3.69"/>
      <path id="Trazado_108" data-name="Trazado 108" d="M385.07,699.82l29,31.71-15.85,44,48.64-37.83-4.96-10.2" fill="none" stroke="#1b3c87" stroke-linecap="round" stroke-linejoin="round" stroke-width="3.69"/>
      <path id="Trazado_109" data-name="Trazado 109" d="M469.53,641.31l16.15,27.42,11.15,5.8-21.22,49.28-4.84-31-28-25.53" fill="#fff"/>
      <path id="Trazado_110" data-name="Trazado 110" d="M445,668.8l-7.15-6.53" fill="none" stroke="#1b3c87" stroke-linecap="round" stroke-linejoin="round" stroke-width="3.69"/>
      <path id="Trazado_111" data-name="Trazado 111" d="M464.52,636.31l16.15,27.41,11.15,5.81L470.6,718.81l-4.84-31-6-5.48" fill="none" stroke="#1b3c87" stroke-linecap="round" stroke-linejoin="round" stroke-width="3.69"/>
      <path id="Trazado_112" data-name="Trazado 112" d="M451.43,573.17v214" fill="none" stroke="#1b3c87" stroke-linecap="round" stroke-linejoin="round" stroke-width="3.69"/>
      <path id="Trazado_113" data-name="Trazado 113" d="M531.24,654.85V787.2" fill="none" stroke="#1b3c87" stroke-linecap="round" stroke-linejoin="round" stroke-width="3.69"/>
      <path id="Trazado_114" data-name="Trazado 114" d="M531.24,573.17v45.08" fill="none" stroke="#1b3c87" stroke-linecap="round" stroke-linejoin="round" stroke-width="3.69"/>
      <path id="Trazado_115" data-name="Trazado 115" d="M403.21,278.51c.49,1.7,1.63,2.86,2.55,2.59s1.28-1.85.79-3.54S404.93,274.7,404,275s-1.27,1.85-.79,3.54" fill="#1b3c87"/>
      <path id="Trazado_116" data-name="Trazado 116" d="M392.11,297.2a8.152,8.152,0,0,1-.58,1.83" fill="none" stroke="#1b3c87" stroke-linecap="round" stroke-linejoin="round" stroke-width="3.14"/>
      <path id="Trazado_117" data-name="Trazado 117" d="M391.05,287.29a22.149,22.149,0,0,1,1.3,6.87" fill="none" stroke="#1b3c87" stroke-linecap="round" stroke-linejoin="round" stroke-width="3.14"/>
      <path id="Trazado_118" data-name="Trazado 118" d="M418.41,296.24c.29,2.24-1.28,5.72-4.31,7.75" fill="none" stroke="#1b3c87" stroke-linecap="round" stroke-linejoin="round" stroke-width="3.14"/>
      <rect id="Rectángulo_583" data-name="Rectángulo 583" width="263.43" height="79.48" transform="translate(20.98 254.42)" fill="#d7e0ff"/>
      <path id="Trazado_119" data-name="Trazado 119" d="M261.75,293.76a23.2,23.2,0,1,1-23.2-23.19,23.2,23.2,0,0,1,23.2,23.19" fill="#b2c3fb"/>
      <path id="Trazado_120" data-name="Trazado 120" d="M194.73,280.31H63.79" fill="none" stroke="#eaf0ff" stroke-linecap="round" stroke-linejoin="round" stroke-width="3.69"/>
      <path id="Trazado_121" data-name="Trazado 121" d="M194.73,307.22H125.35" fill="none" stroke="#eaf0ff" stroke-linecap="round" stroke-linejoin="round" stroke-width="3.69"/>
      <rect id="Rectángulo_584" data-name="Rectángulo 584" width="156.56" height="198.66" transform="translate(217.9)" fill="#eaf0ff"/>
      <path id="Trazado_122" data-name="Trazado 122" d="M278.75,71.23l45.9,107.89L421,112.23Z" fill="none" stroke="#b2c3fb" stroke-linecap="round" stroke-linejoin="round" stroke-width="3"/>
      <rect id="Rectángulo_585" data-name="Rectángulo 585" width="90.15" height="37.65" transform="translate(52 99.87)" fill="#eaf0ff"/>
      <rect id="Rectángulo_586" data-name="Rectángulo 586" width="90.15" height="37.65" transform="translate(10.05 146.41)" fill="#eaf0ff"/>
    </g>
  </g>
</svg>
